<svg xmlns="http://www.w3.org/2000/svg" viewBox="0 0 26 26"><defs><style>.cls-1{fill:#fff;}.cls-2{fill:none;stroke:#fff;}</style></defs><g id="Livello_2" data-name="Livello 2"><g id="Õ__1" data-name="Õº≤„_1"><g id="Livello_2-2" data-name="Livello 2"><g id="Page_1-2" data-name="Page 1-2"><g id="Ellipse_6-2-2" data-name="Ellipse 6-2-2"><circle id="Ellipse_8" data-name="Ellipse 8" class="cls-1" cx="13" cy="13" r="13"/><circle id="Ellipse_9" data-name="Ellipse 9" class="cls-2" cx="13" cy="13" r="12.5"/></g><path id="icons8-instagram" d="M10.15,6A4.15,4.15,0,0,0,6,10.15v5.74A4.14,4.14,0,0,0,10.15,20h5.74A4.15,4.15,0,0,0,20,15.89V10.15A4.14,4.14,0,0,0,15.89,6Zm6.7,2.55a.64.64,0,1,1-.64.64h0a.64.64,0,0,1,.63-.64ZM13,9.51A3.51,3.51,0,1,1,9.51,13v0A3.51,3.51,0,0,1,13,9.51Zm0,.64A2.85,2.85,0,1,0,15,11,2.89,2.89,0,0,0,13,10.15Z"/></g></g></g></g></svg>